# xmcd
#
# Track frame offsets:
#	150
#	13130
#	28919
#	38917
#	60147
#	78465
#	94577
#	105068
#	115580
#	128813
#
# Disc length: 1858 seconds
#
# Revision: 1
# Processed by: cddbd v1.5.2PL0 Copyright (c) Steve Scherf et al.
# Submitted via: audiograbber 1.83.01
#
DISCID=6b07400a
DTITLE=Lee Mary - When I´m Good And Lonely
DYEAR=2006
DGENRE=Country general
TTITLE0=When I´m Good And Lonely
TTITLE1=Hungry Side Of Love
TTITLE2=I´ll Come Running
TTITLE3=Cool Rocking Country
TTITLE4=I´ll Take The Memories
TTITLE5=Till A Tear Becomes A Rose
TTITLE6=Waiting Here For You
TTITLE7=If I Kiss You
TTITLE8=Trouble Maker
TTITLE9=Heartaches And Honky Tonks
EXTD=
EXTT0=
EXTT1=
EXTT2=
EXTT3=
EXTT4=
EXTT5=
EXTT6=
EXTT7=
EXTT8=
EXTT9=
PLAYORDER=
